<svg width="175" height="40" viewBox="0 0 175 40" fill="none" xmlns="http://www.w3.org/2000/svg">
<path d="M23.2578 31.0098H18.2744V21.5234L9.33496 30.4629L5.81055 26.9395L14.751 17.998H0V13.0146H14.752L5.80957 4.07324L9.33398 0.548828L18.2744 9.48926V0H23.2578V31.0098Z" fill="#0E0E0E"/>
<path d="M33.1169 12.9854H41.9765C43.2794 12.9854 44.3651 12.6235 45.2337 11.8996C46.1023 11.1469 46.5366 10.0756 46.5366 8.68587C46.5366 7.12241 46.1457 6.0222 45.364 5.38524C44.5822 4.74827 43.4531 4.42979 41.9765 4.42979H33.1169V12.9854ZM27.6882 0H42.7582C45.5377 0 47.7671 0.636964 49.4463 1.91089C51.1256 3.18482 51.9652 5.11018 51.9652 7.68699C51.9652 9.25045 51.5744 10.5968 50.7926 11.7259C50.0399 12.8261 48.9541 13.6802 47.5354 14.2882V14.3751C49.4463 14.7804 50.894 15.6925 51.8784 17.1112C52.8628 18.5009 53.355 20.2525 53.355 22.3661C53.355 23.5821 53.1378 24.7258 52.7035 25.797C52.2692 26.8393 51.5888 27.7513 50.6623 28.5331C49.7358 29.2858 48.5488 29.8938 47.1011 30.3571C45.6535 30.7914 43.9308 31.0085 41.933 31.0085H27.6882V0ZM33.1169 26.5787H42.7148C44.3651 26.5787 45.639 26.1589 46.5366 25.3193C47.4631 24.4507 47.9263 23.2347 47.9263 21.6712C47.9263 20.1367 47.4631 18.9641 46.5366 18.1535C45.639 17.3138 44.3651 16.894 42.7148 16.894H33.1169V26.5787Z" fill="#0E0E0E"/>
<path d="M55.5696 0H60.5205V31.0085H55.5696V0Z" fill="#0E0E0E"/>
<path d="M79.2392 17.806C79.1813 17.0242 79.0076 16.2715 78.7181 15.5476C78.4575 14.8238 78.0811 14.2013 77.5889 13.6802C77.1257 13.1301 76.5466 12.6958 75.8517 12.3773C75.1858 12.0299 74.433 11.8561 73.5934 11.8561C72.7248 11.8561 71.9286 12.0154 71.2048 12.3339C70.5099 12.6234 69.9019 13.0432 69.3808 13.5933C68.8886 14.1145 68.4832 14.737 68.1647 15.4608C67.8752 16.1846 67.716 16.9663 67.687 17.806H79.2392ZM67.687 21.0632C67.687 21.9318 67.8028 22.7714 68.0345 23.5821C68.295 24.3927 68.6714 25.1021 69.1636 25.7101C69.6558 26.3181 70.2783 26.8103 71.0311 27.1867C71.7839 27.5341 72.6814 27.7078 73.7237 27.7078C75.1713 27.7078 76.3295 27.4038 77.198 26.7958C78.0956 26.1589 78.7615 25.2179 79.1958 23.9729H83.8862C83.6256 25.1889 83.1768 26.2747 82.5399 27.2301C81.9029 28.1856 81.1356 28.9963 80.2381 29.6622C79.3406 30.2991 78.3272 30.7769 77.198 31.0953C76.0978 31.4428 74.9397 31.6165 73.7237 31.6165C71.9576 31.6165 70.3941 31.327 69.0333 30.7479C67.6725 30.1688 66.5144 29.3582 65.559 28.3159C64.6325 27.2736 63.9232 26.0286 63.431 24.5809C62.9677 23.1333 62.7361 21.5409 62.7361 19.8037C62.7361 18.2113 62.9822 16.7058 63.4744 15.2871C63.9955 13.8394 64.7194 12.58 65.6458 11.5087C66.6013 10.4085 67.7449 9.53992 69.0768 8.90296C70.4086 8.26599 71.9141 7.94751 73.5934 7.94751C75.3595 7.94751 76.9375 8.3239 78.3272 9.07667C79.7459 9.80049 80.9185 10.7704 81.845 11.9864C82.7715 13.2025 83.4374 14.6067 83.8427 16.1991C84.277 17.7625 84.3928 19.3839 84.1902 21.0632H67.687Z" fill="#0E0E0E"/>
<path d="M102.175 17.806C102.117 17.0242 101.943 16.2715 101.653 15.5476C101.393 14.8238 101.016 14.2013 100.524 13.6802C100.061 13.1301 99.4819 12.6958 98.787 12.3773C98.1211 12.0299 97.3683 11.8561 96.5287 11.8561C95.6601 11.8561 94.8639 12.0154 94.1401 12.3339C93.4452 12.6234 92.8372 13.0432 92.3161 13.5933C91.8239 14.1145 91.4185 14.737 91.1001 15.4608C90.8105 16.1846 90.6513 16.9663 90.6223 17.806H102.175ZM90.6223 21.0632C90.6223 21.9318 90.7381 22.7714 90.9698 23.5821C91.2303 24.3927 91.6067 25.1021 92.0989 25.7101C92.5911 26.3181 93.2136 26.8103 93.9664 27.1867C94.7192 27.5341 95.6167 27.7078 96.659 27.7078C98.1066 27.7078 99.2648 27.4038 100.133 26.7958C101.031 26.1589 101.697 25.2179 102.131 23.9729H106.821C106.561 25.1889 106.112 26.2747 105.475 27.2301C104.838 28.1856 104.071 28.9963 103.173 29.6622C102.276 30.2991 101.263 30.7769 100.133 31.0953C99.0331 31.4428 97.875 31.6165 96.659 31.6165C94.8929 31.6165 93.3294 31.327 91.9686 30.7479C90.6079 30.1688 89.4497 29.3582 88.4943 28.3159C87.5678 27.2736 86.8585 26.0286 86.3663 24.5809C85.903 23.1333 85.6714 21.5409 85.6714 19.8037C85.6714 18.2113 85.9175 16.7058 86.4097 15.2871C86.9308 13.8394 87.6547 12.58 88.5812 11.5087C89.5366 10.4085 90.6802 9.53992 92.0121 8.90296C93.3439 8.26599 94.8494 7.94751 96.5287 7.94751C98.2948 7.94751 99.8728 8.3239 101.263 9.07667C102.681 9.80049 103.854 10.7704 104.78 11.9864C105.707 13.2025 106.373 14.6067 106.778 16.1991C107.212 17.7625 107.328 19.3839 107.125 21.0632H90.6223Z" fill="#0E0E0E"/>
<path d="M108.883 8.55552H113.573V11.5956H113.66C114.355 10.2927 115.325 9.3662 116.57 8.8161C117.815 8.23704 119.161 7.94751 120.609 7.94751C122.375 7.94751 123.91 8.26599 125.212 8.90296C126.544 9.51096 127.645 10.3651 128.513 11.4653C129.382 12.5365 130.033 13.796 130.467 15.2436C130.902 16.6913 131.119 18.2403 131.119 19.8906C131.119 21.3961 130.916 22.8582 130.511 24.2769C130.134 25.6956 129.541 26.9551 128.73 28.0553C127.949 29.1265 126.95 29.9951 125.734 30.661C124.518 31.298 123.084 31.6165 121.434 31.6165C120.71 31.6165 119.986 31.5441 119.263 31.3993C118.539 31.2835 117.844 31.0809 117.178 30.7913C116.512 30.5018 115.89 30.1399 115.311 29.7056C114.76 29.2424 114.297 28.7067 113.921 28.0987H113.834V39.3035H108.883V8.55552ZM126.168 19.8037C126.168 18.7904 126.038 17.806 125.777 16.8505C125.516 15.8951 125.126 15.0554 124.604 14.3316C124.083 13.5788 123.432 12.9853 122.65 12.551C121.868 12.0878 120.971 11.8561 119.958 11.8561C117.873 11.8561 116.295 12.58 115.224 14.0276C114.181 15.4753 113.66 17.4006 113.66 19.8037C113.66 20.9329 113.791 21.9897 114.051 22.9741C114.341 23.9295 114.76 24.7547 115.311 25.4495C115.861 26.1444 116.512 26.6945 117.265 27.0998C118.047 27.5052 118.944 27.7078 119.958 27.7078C121.087 27.7078 122.042 27.4762 122.824 27.013C123.606 26.5497 124.243 25.9562 124.735 25.2324C125.256 24.4796 125.618 23.64 125.82 22.7135C126.052 21.758 126.168 20.7881 126.168 19.8037Z" fill="#0E0E0E"/>
<path d="M151.971 26.0141C151.971 26.6221 152.043 27.0564 152.188 27.317C152.361 27.5776 152.68 27.7078 153.143 27.7078C153.288 27.7078 153.462 27.7078 153.664 27.7078C153.867 27.7078 154.099 27.6789 154.359 27.621V31.0519C154.186 31.1098 153.954 31.1677 153.664 31.2256C153.404 31.3125 153.129 31.3849 152.839 31.4428C152.55 31.5007 152.26 31.5441 151.971 31.5731C151.681 31.602 151.435 31.6165 151.232 31.6165C150.219 31.6165 149.379 31.4138 148.713 31.0085C148.048 30.6031 147.613 29.8938 147.411 28.8804C146.426 29.8359 145.21 30.5308 143.762 30.965C142.344 31.3993 140.969 31.6165 139.637 31.6165C138.623 31.6165 137.653 31.4717 136.727 31.1822C135.8 30.9216 134.975 30.5308 134.251 30.0096C133.557 29.4595 132.992 28.7791 132.558 27.9684C132.152 27.1288 131.95 26.1589 131.95 25.0587C131.95 23.6689 132.196 22.5398 132.688 21.6712C133.209 20.8026 133.875 20.1222 134.686 19.63C135.525 19.1378 136.452 18.7904 137.465 18.5877C138.508 18.3561 139.55 18.1824 140.592 18.0665C141.49 17.8928 142.344 17.777 143.154 17.7191C143.965 17.6322 144.674 17.502 145.283 17.3282C145.919 17.1545 146.412 16.8939 146.759 16.5465C147.135 16.1701 147.324 15.62 147.324 14.8962C147.324 14.2592 147.164 13.7381 146.846 13.3327C146.556 12.9274 146.18 12.6234 145.717 12.4207C145.283 12.1891 144.79 12.0443 144.24 11.9864C143.69 11.8996 143.169 11.8561 142.677 11.8561C141.287 11.8561 140.143 12.1457 139.246 12.7247C138.348 13.3038 137.842 14.2013 137.726 15.4174H132.775C132.862 13.9697 133.209 12.7682 133.817 11.8127C134.425 10.8573 135.192 10.09 136.119 9.51096C137.074 8.93191 138.146 8.52657 139.333 8.29495C140.52 8.06332 141.736 7.94751 142.981 7.94751C144.081 7.94751 145.167 8.06332 146.238 8.29495C147.309 8.52657 148.265 8.90295 149.104 9.42411C149.973 9.94526 150.668 10.6257 151.189 11.4653C151.71 12.276 151.971 13.2748 151.971 14.4619V26.0141ZM147.02 19.7603C146.267 20.2525 145.34 20.5565 144.24 20.6723C143.14 20.7592 142.04 20.9039 140.94 21.1066C140.418 21.1935 139.912 21.3237 139.42 21.4975C138.927 21.6422 138.493 21.8594 138.117 22.1489C137.74 22.4095 137.436 22.7714 137.205 23.2346C137.002 23.6689 136.901 24.2046 136.901 24.8415C136.901 25.3916 137.06 25.8549 137.378 26.2313C137.697 26.6076 138.073 26.9116 138.508 27.1433C138.971 27.3459 139.463 27.4907 139.984 27.5776C140.534 27.6644 141.026 27.7078 141.461 27.7078C142.011 27.7078 142.604 27.6355 143.241 27.4907C143.878 27.3459 144.472 27.0998 145.022 26.7524C145.601 26.405 146.079 25.9707 146.455 25.4495C146.831 24.8994 147.02 24.2335 147.02 23.4518V19.7603Z" fill="#0E0E0E"/>
<path d="M152.247 8.55664H157.676L163.539 25.3204H163.626L169.315 8.55664H174.483L165.754 32.2256C165.348 33.239 164.943 34.2089 164.538 35.1354C164.161 36.0619 163.683 36.8726 163.104 37.5674C162.554 38.2912 161.859 38.8558 161.02 39.2612C160.18 39.6955 159.109 39.9126 157.806 39.9126C156.648 39.9126 155.504 39.8258 154.375 39.652V35.4828C154.78 35.5407 155.171 35.5986 155.548 35.6565C155.924 35.7434 156.315 35.7868 156.72 35.7868C157.299 35.7868 157.777 35.7144 158.153 35.5697C158.53 35.4249 158.834 35.2078 159.065 34.9182C159.326 34.6577 159.543 34.3392 159.717 33.9628C159.891 33.5864 160.05 33.1521 160.195 32.6599L160.759 30.9227L152.247 8.55664Z" fill="#0E0E0E"/>
<path d="M3.56576 1.11259L3.99251 0H4.43068V1.56982H4.14492V0.342922H4.1373L3.66864 1.56982H3.45526L2.9866 0.342922H2.97898V1.56982H2.69321V0H3.1352L3.56576 1.11259ZM2.37315 0.247666H1.89306V1.56982H1.58824V0.247666H1.10815V0H2.37315V0.247666Z" fill="#0E0E0E"/>
</svg>
